<?xml version="1.0" encoding="utf-8"?>
<!-- Svg Vector Icons : http://www.onlinewebfonts.com/icon -->
<!DOCTYPE svg PUBLIC "-//W3C//DTD SVG 1.1//EN" "http://www.w3.org/Graphics/SVG/1.1/DTD/svg11.dtd">
<svg version="1.1" xmlns="http://www.w3.org/2000/svg" xmlns:xlink="http://www.w3.org/1999/xlink" x="0px" y="0px" viewBox="0 0 1000 1000" enable-background="new 0 0 1000 1000" xml:space="preserve">
<metadata> Svg Vector Icons : http://www.onlinewebfonts.com/icon </metadata>
<g><g transform="translate(0.000000,511.000000) scale(0.100000,-0.100000)"><path d="M6299.8,4976.1c-84.1-19.2-211.5-69.7-281.2-110.5c-79.3-50.5-581.6-533.5-1389-1341L3365.5,2260.5L5259.2,366.8l1891.3-1891.3L8441-234c814.7,817.1,1304.9,1329,1336.2,1389c156.2,314.8,163.4,634.4,21.6,930c-81.7,165.8-156.2,245.1-1379.4,1465.9C7015.9,4952,7047.2,4925.6,6717.9,4985.7C6542.5,5019.3,6494.4,5016.9,6299.8,4976.1z M5706.2,2909.3c350.8-91.3,576.8-389.3,576.8-757c-2.4-302.8-161-552.7-439.8-689.7c-115.4-57.7-163.4-67.3-338.9-67.3c-175.4,0-221.1,9.6-326.8,64.9c-182.7,96.1-257.1,168.2-348.5,336.4c-74.5,139.4-81.7,168.2-81.7,355.7c0,161,12,228.3,55.3,324.4c96.1,206.7,293.2,377.3,509.5,435C5458.7,2952.6,5540.4,2952.6,5706.2,2909.3z M8388.1,2354.2c283.6-129.8,435-355.7,451.8-672.9c9.6-173,2.4-211.5-55.3-338.8c-79.3-180.2-221.1-322-406.2-406.1c-124.9-55.3-161-62.5-336.4-52.9c-146.6,9.6-223.5,26.4-314.8,72.1c-463.8,240.3-567.1,853.1-209.1,1230.4c48.1,50.5,153.8,122.6,233.1,161C7948.4,2443.1,8193.5,2445.5,8388.1,2354.2z"/><path d="M1548.7,441.3C347.1-765.1,243.8-875.7,183.7-1015.1c-120.2-276.4-110.6-603.2,26.4-882c81.7-163.4,2573.8-2667.5,2754-2766c334.1-180.2,747.4-165.8,1050.2,36c60.1,40.8,672.9,636.8,1362.6,1329l1256.9,1256.9L4740.1-147.5L2848.8,1743.8L1548.7,441.3z M3399.1-935.8c350.9-91.3,576.8-389.3,576.8-757c-2.4-302.8-161-552.7-439.8-689.7c-115.4-57.7-163.4-67.3-338.9-67.3c-173,2.4-223.5,12-329.2,67.3c-158.6,81.7-278.8,199.5-360.5,360.5c-91.3,170.6-96.1,471-12,653.7c96.1,206.7,293.2,377.3,509.5,435C3151.6-892.5,3233.3-892.5,3399.1-935.8z"/></g></g>
</svg>